<svg width="54" height="54" viewBox="0 0 54 54" fill="none" xmlns="http://www.w3.org/2000/svg">
<path d="M27 23.625C37.6313 23.625 48.9375 20.3681 48.9375 14.3438V9.28125C48.9375 3.25688 37.6313 0 27 0C16.3687 0 5.0625 3.25688 5.0625 9.28125V14.3438C5.0625 20.3681 16.3687 23.625 27 23.625ZM8.4375 9.28125C8.4375 6.86813 15.6769 3.375 27 3.375C38.3231 3.375 45.5625 6.86813 45.5625 9.28125V14.3438C45.5625 16.7569 38.3231 20.25 27 20.25C15.6769 20.25 8.4375 16.7569 8.4375 14.3438V9.28125Z" fill="black"/>
<path d="M27 54C37.6313 54 48.9375 50.7431 48.9375 44.7188V39.6562C48.9375 39.2087 48.7597 38.7795 48.4432 38.463C48.1268 38.1465 47.6976 37.9688 47.25 37.9688C46.8024 37.9688 46.3732 38.1465 46.0568 38.463C45.7403 38.7795 45.5625 39.2087 45.5625 39.6562V44.7188C45.5625 47.1319 38.3231 50.625 27 50.625C15.6769 50.625 8.4375 47.1319 8.4375 44.7188V39.6562C8.4375 39.2087 8.25971 38.7795 7.94324 38.463C7.62677 38.1465 7.19755 37.9688 6.75 37.9688C6.30245 37.9688 5.87322 38.1465 5.55676 38.463C5.24029 38.7795 5.0625 39.2087 5.0625 39.6562V44.7188C5.0625 50.7431 16.3687 54 27 54Z" fill="black"/>
<path d="M27 38.8125C37.6313 38.8125 48.9375 35.5556 48.9375 29.5312V24.4688C48.9375 24.0212 48.7597 23.592 48.4432 23.2755C48.1268 22.959 47.6976 22.7812 47.25 22.7812C46.8024 22.7812 46.3732 22.959 46.0568 23.2755C45.7403 23.592 45.5625 24.0212 45.5625 24.4688V29.5312C45.5625 31.9444 38.3231 35.4375 27 35.4375C15.6769 35.4375 8.4375 31.9444 8.4375 29.5312V24.4688C8.4375 24.0212 8.25971 23.592 7.94324 23.2755C7.62677 22.959 7.19755 22.7812 6.75 22.7812C6.30245 22.7812 5.87322 22.959 5.55676 23.2755C5.24029 23.592 5.0625 24.0212 5.0625 24.4688V29.5312C5.0625 35.5556 16.3687 38.8125 27 38.8125Z" fill="black"/>
</svg>
