<svg width="56" height="30" viewBox="0 0 56 30" fill="none" xmlns="http://www.w3.org/2000/svg">
<path d="M23.92 1.08V29H18.32V17.12H6.36V29H0.76V1.08H6.36V12.56H18.32V1.08H23.92Z" fill="black"/>
<path d="M28.0719 15C28.0719 12.2533 28.6852 9.8 29.9119 7.64C31.1652 5.45333 32.8585 3.76 34.9919 2.56C37.1519 1.33333 39.5652 0.719999 42.2319 0.719999C45.3519 0.719999 48.0852 1.52 50.4319 3.12C52.7785 4.72 54.4185 6.93333 55.3519 9.76H48.9119C48.2719 8.42667 47.3652 7.42667 46.1919 6.76C45.0452 6.09333 43.7119 5.76 42.1919 5.76C40.5652 5.76 39.1119 6.14667 37.8319 6.92C36.5785 7.66666 35.5919 8.73333 34.8719 10.12C34.1785 11.5067 33.8319 13.1333 33.8319 15C33.8319 16.84 34.1785 18.4667 34.8719 19.88C35.5919 21.2667 36.5785 22.3467 37.8319 23.12C39.1119 23.8667 40.5652 24.24 42.1919 24.24C43.7119 24.24 45.0452 23.9067 46.1919 23.24C47.3652 22.5467 48.2719 21.5333 48.9119 20.2H55.3519C54.4185 23.0533 52.7785 25.28 50.4319 26.88C48.1119 28.4533 45.3785 29.24 42.2319 29.24C39.5652 29.24 37.1519 28.64 34.9919 27.44C32.8585 26.2133 31.1652 24.52 29.9119 22.36C28.6852 20.2 28.0719 17.7467 28.0719 15Z" fill="#41644A"/>
</svg>
